<?xml version="1.0" encoding="UTF-8"?>
<svg id="Livello_1" xmlns="http://www.w3.org/2000/svg" version="1.1" viewBox="0 0 188.343 215.082">
  <!-- Generator: Adobe Illustrator 29.0.1, SVG Export Plug-In . SVG Version: 2.1.0 Build 192)  -->
  <path d="M187.408,90.427c-3.009-24.783-14.824-58.412-54.024-77.877C117.336,4.581,100.706.366,83.956.023c-12.015-.247-24.089,1.519-35.995,5.195-.06-.138-.088-.253-.157-.398-2.058-4.311-7.125-5.223-11.888-3.591-9.055,3.101-10.588,14.252-15.425,21.394,4.651.64,9.109,2.202,13.669,3.272,4.759,1.116,8.953,1.491,12.265-.56,4.155-2.573,7.008-6.258,5.469-10.332-.099-.262-.199-.502-.302-.727,1.831-.548,3.664-1.07,5.502-1.519l11.212,16.224,2.878-18.685c4.2-.44,8.401-.621,12.591-.535,15.368.316,30.667,4.203,45.471,11.554,6.113,3.035,11.684,6.557,16.712,10.529l-9.255,19.642,21.38-7.928c2.377,2.822,4.561,5.794,6.533,8.922,7.073,11.213,11.568,24.381,13.359,39.139.484,3.984.749,7.911.845,11.755l-16.734,9.015,16.339,4.981c-1.464,18.101-6.283,32.991-9.849,40.544-2.979,6.309-8.436,12.912-14.377,18.778l-18.307-8.435,7.062,18.332c-2.887,2.271-5.586,4.199-7.839,5.646-6.682,4.29-15.062,8.559-24.545,11.003l-12.004-19.944-4.806,22.009c-6.182-.094-12.629-1.158-19.223-3.573-7.641-2.799-14.188-5.436-19.843-8.026l1.014-18.266-12.927,12.103c-17.389-10.348-22.904-21.397-28.854-40.438l14.909-12.066-18.334-1.978c-2.342-14.955-.458-29.876,5.267-43.093l19.917,1.183-12.64-14.172c2.596-3.696,5.545-7.175,8.848-10.377,8.716-8.449,21.812-13.911,36.91-15.411l9.754,17.463,4.454-17.655c10.281.728,20.274,3.307,28.655,7.512,1.535.769,2.999,1.594,4.409,2.464l-8.506,17.683,20.455-7.393c2.84,3.411,5.234,7.247,7.193,11.548,3.535,7.765,5.17,15.988,6.058,23.156l-19.299,10.397,19.455,5.931c-1.428,8.546-5.411,17.381-11.997,24.715l-18.213-8.391,6.844,17.764c-2.418,1.45-5.02,2.735-7.808,3.819-2.441.948-4.869,1.701-7.283,2.271l-10.382-17.249-4.019,18.403c-5.635-.456-11.174-2-16.603-4.617l1.134-20.425-13.385,12.532c-.386-.314-.773-.628-1.158-.954-3.855-3.26-6.612-8.21-8.536-13.429l15.013-12.15-18.431-1.989c-.421-3.162-.553-5.805-.48-7.42.087-1.944,1.138-5.103,4.744-10.12l17.431,5.042-8.654-15.368c.305-.319.613-.64.931-.968,3.978-4.097,15.231-8.182,26.753-3.937,5.347,1.972,10.024,8.337,12.818,12.141.947,1.29,1.656,2.254,2.327,2.995.838,1.905.883,9.31-2.192,14.351-2.99,4.901-9.435,7.428-14.075,5.519-1.075-.443-2.699-1.112-3.652-1.62-1.86-1.442-1.717-3.793-.724-4.296l6.688-5.302c-.948-1.586-2.565-2.942-5.392-2.826-4.575.187-7.455,4.569-8.24,6.158-1.54,3.119-1.396,6.571.018,9.878,1.483,3.468,3.478,5.38,7.767,7.046,5.833,2.265,13.715,1.314,19.474-2.771l19.852,5.56-10.826-18.86c.794-2.825,1.22-5.802,1.258-8.6l17.276-14.621-24.024-2.051.41,1.37c-2.297-3.033-5.318-6.684-9.053-9.554l1.051-18.931-14.405,13.487c-3.3-.53-6.813-.677-10.308-.378l-13.697-16.987-1.766,22.001c-1.473.969-2.847,2.08-4.083,3.353-11.572,11.921-16.878,20.504-17.206,27.831-.398,8.912,3.049,32.1,15.885,42.954,18.756,15.861,39.891,19.885,61.12,11.637,27.136-10.543,39.52-37.263,37.728-58.209-.778-9.09-2.337-20.988-7.533-32.4-5.836-12.818-15.255-22.555-27.994-28.942-.084-.042-.166-.083-.25-.125-13.792-6.848-30.55-9.757-47.221-8.191-17.395,1.634-32.669,8.054-43.009,18.076C2.48,81.693-5.694,115.334,4.027,147.313c5.045,16.597,9.854,28.088,19.507,37.706,9.436,9.401,23.288,16.9,47.811,25.882,27.684,10.14,52.706-.064,68.822-10.41,8.488-5.449,16.686-12.347,23.708-19.948,5.956-6.447,10.788-13.146,13.259-18.379,7.516-15.92,13.608-44.276,10.275-71.736Z" fill="#fff" fill-rule="evenodd"/>
</svg>